<svg xmlns="http://www.w3.org/2000/svg" xmlns:xlink="http://www.w3.org/1999/xlink" viewBox="0 0 1000 348" width="1000" height="348" role="img" font-family="ui-monospace,'SF Mono',SFMono-Regular,Menlo,Consolas,'DejaVu Sans Mono',monospace">
<defs>
<pattern id="gmg" width="10" height="10" patternUnits="userSpaceOnUse"><path d="M10 0V10M0 10H10" stroke="#0d1720" stroke-width=".5" fill="none"/></pattern>
<pattern id="gMg" width="50" height="50" patternUnits="userSpaceOnUse"><path d="M50 0V50M0 50H50" stroke="#142430" stroke-width=".7" fill="none"/></pattern>
<radialGradient id="vgg" cx="42%" cy="38%" r="80%"><stop offset=".42" stop-color="#000" stop-opacity="0"/><stop offset="1" stop-color="#000" stop-opacity=".6"/></radialGradient>
<linearGradient id="scg" x1="0" y1="0" x2="0" y2="1"><stop offset="0" stop-color="#22e3ff" stop-opacity="0"/><stop offset=".5" stop-color="#22e3ff" stop-opacity=".055"/><stop offset="1" stop-color="#22e3ff" stop-opacity="0"/></linearGradient>
<filter id="glg" x="-60%" y="-60%" width="220%" height="220%"><feGaussianBlur stdDeviation="3.4"/></filter>
<filter id="gsg" x="-160%" y="-160%" width="420%" height="420%"><feGaussianBlur stdDeviation="2"/></filter>
</defs>
<rect width="1000" height="348" fill="#05080a"/>
<rect width="1000" height="348" fill="url(#gmg)"/><rect width="1000" height="348" fill="url(#gMg)"/>
<rect width="1000" height="348" fill="url(#vgg)"/>
<rect x="12.5" y="12.5" width="975" height="323" fill="none" stroke="#1d3240" stroke-width="1"/>
<path d="M12,27V12H27" fill="none" stroke="#0e7f94" stroke-width="1.6"/>
<path d="M988,27V12H973" fill="none" stroke="#0e7f94" stroke-width="1.6"/>
<path d="M12,321V336H27" fill="none" stroke="#0e7f94" stroke-width="1.6"/>
<path d="M988,321V336H973" fill="none" stroke="#0e7f94" stroke-width="1.6"/>
<rect x="30" y="23" width="5" height="5" fill="#22e3ff"/><text x="43.0" y="30.0" font-family="ui-monospace,'SF Mono',SFMono-Regular,Menlo,Consolas,'DejaVu Sans Mono',monospace" font-size="8.5" fill="#6b879a" letter-spacing="3">ACTIVITY SIGNAL</text><text x="970.0" y="30.0" font-family="ui-monospace,'SF Mono',SFMono-Regular,Menlo,Consolas,'DejaVu Sans Mono',monospace" font-size="8" fill="#3e5666" text-anchor="end" letter-spacing="1.8">SYNC 2026-09-23 22:08Z · 53 SAMPLES</text>
<defs><linearGradient id="arg" x1="0" y1="0" x2="0" y2="1"><stop offset="0" stop-color="#22e3ff" stop-opacity=".26"/><stop offset="1" stop-color="#22e3ff" stop-opacity="0"/></linearGradient></defs>
<rect x="30" y="50" width="618" height="200" fill="#070c11" stroke="#1d3240" stroke-width="1"/>
<line x1="91.8" y1="50" x2="91.8" y2="250" stroke="#0d1720" stroke-width="1" stroke-dasharray="1 4"/><line x1="153.6" y1="50" x2="153.6" y2="250" stroke="#0d1720" stroke-width="1" stroke-dasharray="1 4"/><line x1="215.4" y1="50" x2="215.4" y2="250" stroke="#0d1720" stroke-width="1" stroke-dasharray="1 4"/><line x1="277.2" y1="50" x2="277.2" y2="250" stroke="#0d1720" stroke-width="1" stroke-dasharray="1 4"/><line x1="339.0" y1="50" x2="339.0" y2="250" stroke="#0d1720" stroke-width="1" stroke-dasharray="1 4"/><line x1="400.8" y1="50" x2="400.8" y2="250" stroke="#0d1720" stroke-width="1" stroke-dasharray="1 4"/><line x1="462.6" y1="50" x2="462.6" y2="250" stroke="#0d1720" stroke-width="1" stroke-dasharray="1 4"/><line x1="524.4" y1="50" x2="524.4" y2="250" stroke="#0d1720" stroke-width="1" stroke-dasharray="1 4"/><line x1="586.2" y1="50" x2="586.2" y2="250" stroke="#0d1720" stroke-width="1" stroke-dasharray="1 4"/><line x1="30" y1="83.3" x2="648" y2="83.3" stroke="#0d1720" stroke-width="1" stroke-dasharray="1 4"/><line x1="30" y1="116.7" x2="648" y2="116.7" stroke="#0d1720" stroke-width="1" stroke-dasharray="1 4"/><line x1="30" y1="150.0" x2="648" y2="150.0" stroke="#0d1720" stroke-width="1" stroke-dasharray="1 4"/><line x1="30" y1="183.3" x2="648" y2="183.3" stroke="#0d1720" stroke-width="1" stroke-dasharray="1 4"/><line x1="30" y1="216.7" x2="648" y2="216.7" stroke="#0d1720" stroke-width="1" stroke-dasharray="1 4"/>
<line x1="30" y1="234" x2="648" y2="234" stroke="#142430" stroke-width="1"/>
<g opacity="1"><line x1="87.7" y1="234" x2="87.7" y2="223.5" stroke="#0e7f94" stroke-width="1" opacity=".5"/><line x1="99.1" y1="234" x2="99.1" y2="212.9" stroke="#0e7f94" stroke-width="1" opacity=".5"/><line x1="270.5" y1="234" x2="270.5" y2="212.9" stroke="#0e7f94" stroke-width="1" opacity=".5"/><line x1="293.3" y1="234" x2="293.3" y2="212.9" stroke="#0e7f94" stroke-width="1" opacity=".5"/><line x1="304.7" y1="234" x2="304.7" y2="212.9" stroke="#0e7f94" stroke-width="1" opacity=".5"/><line x1="373.3" y1="234" x2="373.3" y2="212.9" stroke="#0e7f94" stroke-width="1" opacity=".5"/><line x1="384.7" y1="234" x2="384.7" y2="76.0" stroke="#0e7f94" stroke-width="1" opacity=".5"/><line x1="396.1" y1="234" x2="396.1" y2="223.5" stroke="#0e7f94" stroke-width="1" opacity=".5"/><line x1="430.4" y1="234" x2="430.4" y2="223.5" stroke="#0e7f94" stroke-width="1" opacity=".5"/><line x1="464.7" y1="234" x2="464.7" y2="170.8" stroke="#0e7f94" stroke-width="1" opacity=".5"/><line x1="476.1" y1="234" x2="476.1" y2="191.9" stroke="#0e7f94" stroke-width="1" opacity=".5"/><line x1="533.2" y1="234" x2="533.2" y2="223.5" stroke="#0e7f94" stroke-width="1" opacity=".5"/><animate attributeName="opacity" values="0;0;1" keyTimes="0;0.5500;1" dur="2.00s" fill="freeze" calcMode="spline" keySplines="0 0 1 1;0.3 0 0.2 1"/></g>
<polygon points="42.0,234 42.0,234.0 53.4,234.0 64.8,234.0 76.3,234.0 87.7,223.5 99.1,212.9 110.5,234.0 122.0,234.0 133.4,234.0 144.8,234.0 156.2,234.0 167.7,234.0 179.1,234.0 190.5,234.0 201.9,234.0 213.3,234.0 224.8,234.0 236.2,234.0 247.6,234.0 259.0,234.0 270.5,212.9 281.9,234.0 293.3,212.9 304.7,212.9 316.2,234.0 327.6,234.0 339.0,234.0 350.4,234.0 361.8,234.0 373.3,212.9 384.7,76.0 396.1,223.5 407.5,234.0 419.0,234.0 430.4,223.5 441.8,234.0 453.2,234.0 464.7,170.8 476.1,191.9 487.5,234.0 498.9,234.0 510.3,234.0 521.8,234.0 533.2,223.5 544.6,234.0 556.0,234.0 567.5,234.0 578.9,234.0 590.3,234.0 601.7,234.0 613.2,234.0 624.6,234.0 636.0,234.0 636.0,234" fill="url(#arg)" opacity="1"><animate attributeName="opacity" values="0;0;1" keyTimes="0;0.5833;1" dur="2.40s" fill="freeze" calcMode="spline" keySplines="0 0 1 1;0.3 0 0.2 1"/></polygon>
<path d="M42.0,234.0 L53.4,234.0 L64.8,234.0 L76.3,234.0 L87.7,223.5 L99.1,212.9 L110.5,234.0 L122.0,234.0 L133.4,234.0 L144.8,234.0 L156.2,234.0 L167.7,234.0 L179.1,234.0 L190.5,234.0 L201.9,234.0 L213.3,234.0 L224.8,234.0 L236.2,234.0 L247.6,234.0 L259.0,234.0 L270.5,212.9 L281.9,234.0 L293.3,212.9 L304.7,212.9 L316.2,234.0 L327.6,234.0 L339.0,234.0 L350.4,234.0 L361.8,234.0 L373.3,212.9 L384.7,76.0 L396.1,223.5 L407.5,234.0 L419.0,234.0 L430.4,223.5 L441.8,234.0 L453.2,234.0 L464.7,170.8 L476.1,191.9 L487.5,234.0 L498.9,234.0 L510.3,234.0 L521.8,234.0 L533.2,223.5 L544.6,234.0 L556.0,234.0 L567.5,234.0 L578.9,234.0 L590.3,234.0 L601.7,234.0 L613.2,234.0 L624.6,234.0 L636.0,234.0" fill="none" stroke="#22e3ff" stroke-width="1.8" stroke-linejoin="round" pathLength="100" stroke-dasharray="100" stroke-dashoffset="0" filter="url(#gsg)" opacity=".6"><animate attributeName="stroke-dashoffset" values="100;100;0" keyTimes="0;0.1111;1" dur="2.70s" fill="freeze" calcMode="spline" keySplines="0 0 1 1;0.3 0 0.2 1"/></path>
<path d="M42.0,234.0 L53.4,234.0 L64.8,234.0 L76.3,234.0 L87.7,223.5 L99.1,212.9 L110.5,234.0 L122.0,234.0 L133.4,234.0 L144.8,234.0 L156.2,234.0 L167.7,234.0 L179.1,234.0 L190.5,234.0 L201.9,234.0 L213.3,234.0 L224.8,234.0 L236.2,234.0 L247.6,234.0 L259.0,234.0 L270.5,212.9 L281.9,234.0 L293.3,212.9 L304.7,212.9 L316.2,234.0 L327.6,234.0 L339.0,234.0 L350.4,234.0 L361.8,234.0 L373.3,212.9 L384.7,76.0 L396.1,223.5 L407.5,234.0 L419.0,234.0 L430.4,223.5 L441.8,234.0 L453.2,234.0 L464.7,170.8 L476.1,191.9 L487.5,234.0 L498.9,234.0 L510.3,234.0 L521.8,234.0 L533.2,223.5 L544.6,234.0 L556.0,234.0 L567.5,234.0 L578.9,234.0 L590.3,234.0 L601.7,234.0 L613.2,234.0 L624.6,234.0 L636.0,234.0" fill="none" stroke="#22e3ff" stroke-width="1.8" stroke-linejoin="round" pathLength="100" stroke-dasharray="100" stroke-dashoffset="0" id="trcg"><animate attributeName="stroke-dashoffset" values="100;100;0" keyTimes="0;0.1111;1" dur="2.70s" fill="freeze" calcMode="spline" keySplines="0 0 1 1;0.3 0 0.2 1"/></path>
<circle r="3.2" fill="#e2eff7" opacity="0"><animate attributeName="opacity" values="0;1;1;0" keyTimes="0;.04;.96;1" dur="8s" begin="2.7s" repeatCount="indefinite"/><animateMotion dur="8s" begin="2.7s" repeatCount="indefinite"><mpath href="#trcg" xlink:href="#trcg"/></animateMotion></circle>
<g opacity="1"><animate attributeName="opacity" values="0;0;1" keyTimes="0;0.8065;1" dur="3.10s" fill="freeze" calcMode="spline" keySplines="0 0 1 1;0.3 0 0.2 1"/><circle cx="384.7" cy="76.0" r="4.5" fill="none" stroke="#ffb454" stroke-width="1.2"/><line x1="384.7" y1="67.0" x2="384.7" y2="59.0" stroke="#ffb454" stroke-width="1"/><text x="384.7" y="54.0" font-family="ui-monospace,'SF Mono',SFMono-Regular,Menlo,Consolas,'DejaVu Sans Mono',monospace" font-size="8" fill="#ffb454" text-anchor="middle" letter-spacing="1.4">PEAK 15</text></g>
<line x1="42.0" y1="250" x2="42.0" y2="255" stroke="#1d3240" stroke-width="1"/><text x="42.0" y="266.0" font-family="ui-monospace,'SF Mono',SFMono-Regular,Menlo,Consolas,'DejaVu Sans Mono',monospace" font-size="7.5" fill="#3e5666" text-anchor="middle" letter-spacing="1.2">SEP</text><line x1="64.8" y1="250" x2="64.8" y2="255" stroke="#1d3240" stroke-width="1"/><text x="64.8" y="266.0" font-family="ui-monospace,'SF Mono',SFMono-Regular,Menlo,Consolas,'DejaVu Sans Mono',monospace" font-size="7.5" fill="#3e5666" text-anchor="middle" letter-spacing="1.2">OCT</text><line x1="110.5" y1="250" x2="110.5" y2="255" stroke="#1d3240" stroke-width="1"/><text x="110.5" y="266.0" font-family="ui-monospace,'SF Mono',SFMono-Regular,Menlo,Consolas,'DejaVu Sans Mono',monospace" font-size="7.5" fill="#3e5666" text-anchor="middle" letter-spacing="1.2">NOV</text><line x1="167.7" y1="250" x2="167.7" y2="255" stroke="#1d3240" stroke-width="1"/><text x="167.7" y="266.0" font-family="ui-monospace,'SF Mono',SFMono-Regular,Menlo,Consolas,'DejaVu Sans Mono',monospace" font-size="7.5" fill="#3e5666" text-anchor="middle" letter-spacing="1.2">DEC</text><line x1="213.3" y1="250" x2="213.3" y2="255" stroke="#1d3240" stroke-width="1"/><text x="213.3" y="266.0" font-family="ui-monospace,'SF Mono',SFMono-Regular,Menlo,Consolas,'DejaVu Sans Mono',monospace" font-size="7.5" fill="#3e5666" text-anchor="middle" letter-spacing="1.2">JAN</text><line x1="259.0" y1="250" x2="259.0" y2="255" stroke="#1d3240" stroke-width="1"/><text x="259.0" y="266.0" font-family="ui-monospace,'SF Mono',SFMono-Regular,Menlo,Consolas,'DejaVu Sans Mono',monospace" font-size="7.5" fill="#3e5666" text-anchor="middle" letter-spacing="1.2">FEB</text><line x1="304.7" y1="250" x2="304.7" y2="255" stroke="#1d3240" stroke-width="1"/><text x="304.7" y="266.0" font-family="ui-monospace,'SF Mono',SFMono-Regular,Menlo,Consolas,'DejaVu Sans Mono',monospace" font-size="7.5" fill="#3e5666" text-anchor="middle" letter-spacing="1.2">MAR</text><line x1="361.8" y1="250" x2="361.8" y2="255" stroke="#1d3240" stroke-width="1"/><text x="361.8" y="266.0" font-family="ui-monospace,'SF Mono',SFMono-Regular,Menlo,Consolas,'DejaVu Sans Mono',monospace" font-size="7.5" fill="#3e5666" text-anchor="middle" letter-spacing="1.2">APR</text><line x1="407.5" y1="250" x2="407.5" y2="255" stroke="#1d3240" stroke-width="1"/><text x="407.5" y="266.0" font-family="ui-monospace,'SF Mono',SFMono-Regular,Menlo,Consolas,'DejaVu Sans Mono',monospace" font-size="7.5" fill="#3e5666" text-anchor="middle" letter-spacing="1.2">MAY</text><line x1="464.7" y1="250" x2="464.7" y2="255" stroke="#1d3240" stroke-width="1"/><text x="464.7" y="266.0" font-family="ui-monospace,'SF Mono',SFMono-Regular,Menlo,Consolas,'DejaVu Sans Mono',monospace" font-size="7.5" fill="#3e5666" text-anchor="middle" letter-spacing="1.2">JUN</text><line x1="510.3" y1="250" x2="510.3" y2="255" stroke="#1d3240" stroke-width="1"/><text x="510.3" y="266.0" font-family="ui-monospace,'SF Mono',SFMono-Regular,Menlo,Consolas,'DejaVu Sans Mono',monospace" font-size="7.5" fill="#3e5666" text-anchor="middle" letter-spacing="1.2">JUL</text><line x1="556.0" y1="250" x2="556.0" y2="255" stroke="#1d3240" stroke-width="1"/><text x="556.0" y="266.0" font-family="ui-monospace,'SF Mono',SFMono-Regular,Menlo,Consolas,'DejaVu Sans Mono',monospace" font-size="7.5" fill="#3e5666" text-anchor="middle" letter-spacing="1.2">AUG</text><line x1="613.2" y1="250" x2="613.2" y2="255" stroke="#1d3240" stroke-width="1"/><text x="613.2" y="266.0" font-family="ui-monospace,'SF Mono',SFMono-Regular,Menlo,Consolas,'DejaVu Sans Mono',monospace" font-size="7.5" fill="#3e5666" text-anchor="middle" letter-spacing="1.2">SEP</text>
<line x1="30" y1="282" x2="648" y2="282" stroke="#1d3240" stroke-width="1"/>
<text x="36.0" y="296.0" font-family="ui-monospace,'SF Mono',SFMono-Regular,Menlo,Consolas,'DejaVu Sans Mono',monospace" font-size="7" fill="#3e5666" letter-spacing="2.4">WINDOW</text><text x="36.0" y="312.0" font-family="ui-monospace,'SF Mono',SFMono-Regular,Menlo,Consolas,'DejaVu Sans Mono',monospace" font-size="10.5" fill="#e2eff7" letter-spacing="1">53 WEEKS</text>
<text x="190.5" y="296.0" font-family="ui-monospace,'SF Mono',SFMono-Regular,Menlo,Consolas,'DejaVu Sans Mono',monospace" font-size="7" fill="#3e5666" letter-spacing="2.4">ACTIVE</text><text x="190.5" y="312.0" font-family="ui-monospace,'SF Mono',SFMono-Regular,Menlo,Consolas,'DejaVu Sans Mono',monospace" font-size="10.5" fill="#e2eff7" letter-spacing="1">12 WEEKS</text>
<text x="345.0" y="296.0" font-family="ui-monospace,'SF Mono',SFMono-Regular,Menlo,Consolas,'DejaVu Sans Mono',monospace" font-size="7" fill="#3e5666" letter-spacing="2.4">PEAK</text><text x="345.0" y="312.0" font-family="ui-monospace,'SF Mono',SFMono-Regular,Menlo,Consolas,'DejaVu Sans Mono',monospace" font-size="10.5" fill="#e2eff7" letter-spacing="1">15 / WEEK</text>
<text x="499.5" y="296.0" font-family="ui-monospace,'SF Mono',SFMono-Regular,Menlo,Consolas,'DejaVu Sans Mono',monospace" font-size="7" fill="#3e5666" letter-spacing="2.4">REPOS</text><text x="499.5" y="312.0" font-family="ui-monospace,'SF Mono',SFMono-Regular,Menlo,Consolas,'DejaVu Sans Mono',monospace" font-size="10.5" fill="#e2eff7" letter-spacing="1">9</text>
<rect x="668" y="50" width="310" height="266" rx="2" fill="#090e13" stroke="#1d3240" stroke-width="1"/>
<rect x="668" y="50" width="5" height="5" fill="#ffb454"/>
<text x="680.0" y="70.0" font-family="ui-monospace,'SF Mono',SFMono-Regular,Menlo,Consolas,'DejaVu Sans Mono',monospace" font-size="8.5" fill="#6b879a" letter-spacing="2.8">LANGUAGE MIX</text>
<rect x="676.0" y="82" width="152.1" height="11" fill="#22e3ff" opacity=".9"><animate attributeName="width" values="0;0;152.1" keyTimes="0;0.4706;1" dur="1.70s" fill="freeze" calcMode="spline" keySplines="0 0 1 1;0.2 0 0 1"/></rect>
<rect x="828.1" y="82" width="72.2" height="11" fill="#ffb454" opacity=".9"><animate attributeName="width" values="0;0;72.2" keyTimes="0;0.5000;1" dur="1.80s" fill="freeze" calcMode="spline" keySplines="0 0 1 1;0.2 0 0 1"/></rect>
<rect x="900.3" y="82" width="45.5" height="11" fill="#a78bfa" opacity=".9"><animate attributeName="width" values="0;0;45.5" keyTimes="0;0.5263;1" dur="1.90s" fill="freeze" calcMode="spline" keySplines="0 0 1 1;0.2 0 0 1"/></rect>
<rect x="945.8" y="82" width="13.3" height="11" fill="#8bff6e" opacity=".9"><animate attributeName="width" values="0;0;13.3" keyTimes="0;0.5500;1" dur="2.00s" fill="freeze" calcMode="spline" keySplines="0 0 1 1;0.2 0 0 1"/></rect>
<rect x="959.1" y="82" width="9.1" height="11" fill="#ff6b8a" opacity=".9"><animate attributeName="width" values="0;0;9.1" keyTimes="0;0.5714;1" dur="2.10s" fill="freeze" calcMode="spline" keySplines="0 0 1 1;0.2 0 0 1"/></rect>
<rect x="968.2" y="82" width="1.8" height="11" fill="#0e7f94" opacity=".9"><animate attributeName="width" values="0;0;1.8" keyTimes="0;0.5909;1" dur="2.20s" fill="freeze" calcMode="spline" keySplines="0 0 1 1;0.2 0 0 1"/></rect>
<rect x="676" y="117" width="6" height="6" rx="1" fill="#22e3ff"/>
<text x="690.0" y="124.0" font-family="ui-monospace,'SF Mono',SFMono-Regular,Menlo,Consolas,'DejaVu Sans Mono',monospace" font-size="10" fill="#e2eff7" letter-spacing="1.1">PYTHON</text>
<text x="970.0" y="124.0" font-family="ui-monospace,'SF Mono',SFMono-Regular,Menlo,Consolas,'DejaVu Sans Mono',monospace" font-size="10" fill="#6b879a" text-anchor="end" letter-spacing="0.6">51.7%</text>
<rect x="690" y="131" width="280" height="2.5" rx="1.2" fill="#142430"/>
<rect x="690" y="131" width="144.9" height="2.5" rx="1.2" fill="#22e3ff" opacity=".85"><animate attributeName="width" values="0;0;144.9" keyTimes="0;0.4762;1" dur="2.10s" fill="freeze" calcMode="spline" keySplines="0 0 1 1;0.2 0 0 1"/></rect>
<rect x="676" y="147" width="6" height="6" rx="1" fill="#ffb454"/>
<text x="690.0" y="154.0" font-family="ui-monospace,'SF Mono',SFMono-Regular,Menlo,Consolas,'DejaVu Sans Mono',monospace" font-size="10" fill="#e2eff7" letter-spacing="1.1">JAVASCRIPT</text>
<text x="970.0" y="154.0" font-family="ui-monospace,'SF Mono',SFMono-Regular,Menlo,Consolas,'DejaVu Sans Mono',monospace" font-size="10" fill="#6b879a" text-anchor="end" letter-spacing="0.6">24.6%</text>
<rect x="690" y="161" width="280" height="2.5" rx="1.2" fill="#142430"/>
<rect x="690" y="161" width="68.7" height="2.5" rx="1.2" fill="#ffb454" opacity=".85"><animate attributeName="width" values="0;0;68.7" keyTimes="0;0.5045;1" dur="2.22s" fill="freeze" calcMode="spline" keySplines="0 0 1 1;0.2 0 0 1"/></rect>
<rect x="676" y="177" width="6" height="6" rx="1" fill="#a78bfa"/>
<text x="690.0" y="184.0" font-family="ui-monospace,'SF Mono',SFMono-Regular,Menlo,Consolas,'DejaVu Sans Mono',monospace" font-size="10" fill="#e2eff7" letter-spacing="1.1">HTML</text>
<text x="970.0" y="184.0" font-family="ui-monospace,'SF Mono',SFMono-Regular,Menlo,Consolas,'DejaVu Sans Mono',monospace" font-size="10" fill="#6b879a" text-anchor="end" letter-spacing="0.6">15.5%</text>
<rect x="690" y="191" width="280" height="2.5" rx="1.2" fill="#142430"/>
<rect x="690" y="191" width="43.3" height="2.5" rx="1.2" fill="#a78bfa" opacity=".85"><animate attributeName="width" values="0;0;43.3" keyTimes="0;0.5299;1" dur="2.34s" fill="freeze" calcMode="spline" keySplines="0 0 1 1;0.2 0 0 1"/></rect>
<rect x="676" y="207" width="6" height="6" rx="1" fill="#8bff6e"/>
<text x="690.0" y="214.0" font-family="ui-monospace,'SF Mono',SFMono-Regular,Menlo,Consolas,'DejaVu Sans Mono',monospace" font-size="10" fill="#e2eff7" letter-spacing="1.1">CSS</text>
<text x="970.0" y="214.0" font-family="ui-monospace,'SF Mono',SFMono-Regular,Menlo,Consolas,'DejaVu Sans Mono',monospace" font-size="10" fill="#6b879a" text-anchor="end" letter-spacing="0.6">4.5%</text>
<rect x="690" y="221" width="280" height="2.5" rx="1.2" fill="#142430"/>
<rect x="690" y="221" width="12.7" height="2.5" rx="1.2" fill="#8bff6e" opacity=".85"><animate attributeName="width" values="0;0;12.7" keyTimes="0;0.5528;1" dur="2.46s" fill="freeze" calcMode="spline" keySplines="0 0 1 1;0.2 0 0 1"/></rect>
<rect x="676" y="237" width="6" height="6" rx="1" fill="#ff6b8a"/>
<text x="690.0" y="244.0" font-family="ui-monospace,'SF Mono',SFMono-Regular,Menlo,Consolas,'DejaVu Sans Mono',monospace" font-size="10" fill="#e2eff7" letter-spacing="1.1">TYPESCRIPT</text>
<text x="970.0" y="244.0" font-family="ui-monospace,'SF Mono',SFMono-Regular,Menlo,Consolas,'DejaVu Sans Mono',monospace" font-size="10" fill="#6b879a" text-anchor="end" letter-spacing="0.6">3.1%</text>
<rect x="690" y="251" width="280" height="2.5" rx="1.2" fill="#142430"/>
<rect x="690" y="251" width="8.6" height="2.5" rx="1.2" fill="#ff6b8a" opacity=".85"><animate attributeName="width" values="0;0;8.6" keyTimes="0;0.5736;1" dur="2.58s" fill="freeze" calcMode="spline" keySplines="0 0 1 1;0.2 0 0 1"/></rect>
<rect x="676" y="267" width="6" height="6" rx="1" fill="#0e7f94"/>
<text x="690.0" y="274.0" font-family="ui-monospace,'SF Mono',SFMono-Regular,Menlo,Consolas,'DejaVu Sans Mono',monospace" font-size="10" fill="#e2eff7" letter-spacing="1.1">OTHER</text>
<text x="970.0" y="274.0" font-family="ui-monospace,'SF Mono',SFMono-Regular,Menlo,Consolas,'DejaVu Sans Mono',monospace" font-size="10" fill="#6b879a" text-anchor="end" letter-spacing="0.6">0.6%</text>
<rect x="690" y="281" width="280" height="2.5" rx="1.2" fill="#142430"/>
<rect x="690" y="281" width="1.7" height="2.5" rx="1.2" fill="#0e7f94" opacity=".85"><animate attributeName="width" values="0;0;1.7" keyTimes="0;0.5926;1" dur="2.70s" fill="freeze" calcMode="spline" keySplines="0 0 1 1;0.2 0 0 1"/></rect>
<line x1="676" y1="292" x2="970" y2="292" stroke="#142430" stroke-width="1"/>
<text x="676.0" y="306.0" font-family="ui-monospace,'SF Mono',SFMono-Regular,Menlo,Consolas,'DejaVu Sans Mono',monospace" font-size="7.5" fill="#3e5666" letter-spacing="1.6">4 SOURCE REPOSITORIES ANALYSED</text>
<rect x="12" y="12" width="976" height="36" fill="url(#scg)"><animate attributeName="y" values="12;300;12" dur="15s" repeatCount="indefinite"/></rect>
</svg>
